<?xml version="1.0" encoding="utf-8"?>
<!-- Generator: Adobe Illustrator 28.3.0, SVG Export Plug-In . SVG Version: 6.00 Build 0)  -->
<svg version="1.1" id="Camada_1" xmlns="http://www.w3.org/2000/svg" xmlns:xlink="http://www.w3.org/1999/xlink" x="0px" y="0px"
	 style="enable-background:new 0 0 189 40;" xml:space="preserve">
<style type="text/css">
	.st0{fill-rule:evenodd;clip-rule:evenodd;fill:#009FE3;}
	.st1{fill-rule:evenodd;clip-rule:evenodd;fill:#E30613;}
	.st2{fill-rule:evenodd;clip-rule:evenodd;fill:#3BAA35;}
	.st3{fill-rule:evenodd;clip-rule:evenodd;fill:#F39200;}
	.st4{fill-rule:evenodd;clip-rule:evenodd;fill:#FFFFFF;}
	.st5{fill:#FFFFFF;}
</style>
<g>
	<g transform="matrix(4.16667,0,0,4.16667,0,0)">
		<g transform="matrix(1,0,0,1,303.914,261.765)">
			<path class="st0" d="M-269.5-258.8c-0.4-0.1-0.8-0.4-0.8-0.9c0-0.5,0.4-0.9,0.9-0.9c0.5,0,0.9,0.4,0.9,0.9
				C-268.9-259.6-269.2-259.3-269.5-258.8"/>
		</g>
	</g>
	<g transform="matrix(4.16667,0,0,4.16667,0,0)">
		<g transform="matrix(1,0,0,1,299.199,288.984)">
			<path class="st1" d="M-265.4-283.1c-0.2,0.5-0.8,0.8-1.4,0.8c-0.8,0-1.5-0.7-1.5-1.5c0,0,0,0,0-0.1
				C-267.8-283.4-266.6-283.2-265.4-283.1 M-265.2-283.8c0,0.2,0,0.3-0.1,0.5c-1.4-0.1-2.6-0.3-2.9-0.8c0-0.1,0-0.1,0-0.1
				c0.2-0.6,0.8-1.1,1.4-1.1c0.3,0,0.6,0.1,0.8,0.3C-265.5-284.8-265.2-284.3-265.2-283.8"/>
		</g>
	</g>
	<g transform="matrix(4.16667,0,0,4.16667,0,0)">
		<g transform="matrix(1,0,0,1,346.81,263.406)">
			<path class="st2" d="M-307-259.4c-0.5-0.3-0.8-0.8-0.8-1.3c0-0.8,0.7-1.5,1.5-1.5c0.4,0,0.8,0.2,1.1,0.4c0,0.5-0.3,1.1-0.9,1.6
				C-306.3-259.9-306.6-259.7-307-259.4 M-304.8-260.8c0,0.8-0.7,1.5-1.5,1.5c-0.2,0-0.3,0-0.5-0.1c0.3-0.2,0.6-0.5,0.8-0.7
				c0.5-0.5,0.8-1,0.9-1.6C-304.9-261.4-304.8-261.1-304.8-260.8"/>
		</g>
	</g>
	<g transform="matrix(4.16667,0,0,4.16667,0,0)">
		<g transform="matrix(1,0,0,1,304.551,278.474)">
			<path class="st3" d="M-270-272.8c-0.2-0.4-0.3-0.8-0.3-1.2c0-0.3,0.1-0.6,0.1-0.8c0.3-1,1.3-1.8,2.5-1.8c0.5,0,1,0.2,1.4,0.4
				c0.7,0.4,1.2,1.2,1.2,2c-0.4,0.3-0.9,0.5-1.3,0.7c-0.3,0.1-0.6,0.2-1,0.3c-0.3,0.1-0.6,0.2-1,0.2s-0.7,0.1-1.1,0.1
				C-269.7-272.8-269.9-272.8-270-272.8 M-265.2-274c-0.1,1.4-1.2,2.5-2.6,2.5c-0.9,0-1.7-0.5-2.2-1.2c0.2,0,0.3,0,0.4,0
				c0.4,0,0.8-0.1,1.1-0.1c0.4-0.1,0.7-0.1,1-0.2l0,0c0.3-0.1,0.7-0.2,1-0.3C-266-273.5-265.5-273.7-265.2-274"/>
		</g>
	</g>
	<g transform="matrix(4.16667,0,0,4.16667,0,0)">
		<g transform="matrix(1,0,0,1,94.958,308.225)">
			<path class="st4" d="M-87-305.6h-1c-0.4,0-0.8,0.1-1.1,0.4c-0.3,0.3-0.4,0.6-0.4,1c0,0.4,0.2,0.8,0.5,1.1
				c0.3,0.3,0.7,0.4,1.1,0.4h0.9L-87-305.6L-87-305.6z M-90-303.2c-0.2-0.3-0.2-0.6-0.2-1c0-0.6,0.2-1.1,0.7-1.5
				c0.4-0.4,1-0.6,1.6-0.6h1.7v5.7H-87v-1.4h-1c-0.4,0-0.8-0.1-1.2-0.3C-89.5-302.5-89.8-302.8-90-303.2"/>
		</g>
	</g>
	<g transform="matrix(4.16667,0,0,4.16667,0,0)">
		<g transform="matrix(1,0,0,1,104.173,283.439)">
			<path class="st4" d="M-95-279v-2.5h0.7v2.4c0,0.4,0.1,0.7,0.3,0.9c0.2,0.2,0.5,0.4,0.9,0.4c0.4,0,0.7-0.1,0.9-0.4
				c0.2-0.2,0.3-0.5,0.3-0.9v-2.4h0.7v4.3h-0.7v-0.4c-0.2,0.2-0.4,0.3-0.6,0.4c-0.2,0.1-0.4,0.1-0.7,0.1c-0.5,0-0.9-0.2-1.3-0.5
				C-94.9-278.1-95-278.5-95-279"/>
		</g>
	</g>
	<g transform="matrix(4.16667,0,0,4.16667,0,0)">
		<g transform="matrix(1,0,0,1,163.75,268.822)">
			<path class="st4" d="M-147.1-262.6v-3.7h-0.9c-0.4,0-0.8,0.2-1.1,0.4c-0.3,0.3-0.4,0.7-0.4,1.1c0,0.4,0.2,0.8,0.4,1.1
				c0.3,0.3,0.7,0.4,1.1,0.4c0.3,0,0.5-0.1,0.7-0.2v0.7c-0.3,0.1-0.5,0.2-0.8,0.2c-0.6,0-1.2-0.2-1.6-0.6c-0.4-0.4-0.7-0.9-0.7-1.5
				c0-0.3,0.1-0.7,0.2-1c0.2-0.4,0.5-0.7,0.8-0.8c0.3-0.2,0.7-0.3,1.2-0.3h1.7v4.3L-147.1-262.6L-147.1-262.6z"/>
		</g>
	</g>
	<g transform="matrix(4.16667,0,0,4.16667,0,0)">
		<g transform="matrix(1,0,0,1,172.092,302.478)">
			<path class="st4" d="M-154.4-301.7h0.7v1.1h1.5v0.7h-1.5v2.1c0,0.1,0,0.2,0.1,0.3c0.1,0.1,0.1,0.2,0.1,0.3
				c0.2,0.2,0.5,0.4,0.9,0.4h0.5v0.6c0,0-0.2,0-0.4,0c-0.2,0-0.4,0-0.5,0c-0.2,0-0.3-0.1-0.4-0.1c-0.3-0.1-0.5-0.2-0.7-0.5
				c-0.2-0.2-0.3-0.5-0.3-0.8L-154.4-301.7L-154.4-301.7z"/>
		</g>
	</g>
	<g transform="matrix(4.16667,0,0,4.16667,0,0)">
		<g transform="matrix(1,0,0,1,191.315,302.478)">
			<path class="st4" d="M-171.2-301.7h0.7v1.1h1.5v0.7h-1.5v2.1c0,0.1,0,0.2,0.1,0.3s0.1,0.2,0.1,0.3c0.2,0.2,0.5,0.4,0.9,0.4h0.5
				v0.6c0,0-0.2,0-0.4,0c-0.2,0-0.4,0-0.5,0c-0.2,0-0.3-0.1-0.4-0.1c-0.3-0.1-0.5-0.2-0.7-0.5c-0.2-0.2-0.3-0.5-0.3-0.8
				L-171.2-301.7L-171.2-301.7z"/>
		</g>
	</g>
	<g transform="matrix(4.16667,0,0,4.16667,0,0)">
		<g transform="matrix(1,0,0,1,229.603,297.817)">
			<path class="st4" d="M-204.6-295.3c-0.4,0-0.8,0.2-1.2,0.4c-0.3,0.3-0.5,0.7-0.5,1.1c0,0.4,0.2,0.8,0.5,1.1
				c0.3,0.3,0.7,0.4,1.2,0.4s0.8-0.2,1.2-0.4c0.3-0.3,0.5-0.7,0.5-1.1c0-0.4-0.2-0.8-0.5-1.1C-203.8-295.1-204.2-295.3-204.6-295.3
				 M-204.6-291.5c-0.6,0-1.2-0.2-1.6-0.6c-0.4-0.4-0.7-0.9-0.7-1.6c0-0.6,0.2-1.1,0.7-1.6c0.4-0.4,1-0.7,1.6-0.7
				c0.6,0,1.2,0.2,1.6,0.7c0.5,0.4,0.7,0.9,0.7,1.6s-0.2,1.1-0.7,1.6C-203.4-291.7-204-291.5-204.6-291.5"/>
		</g>
	</g>
	<g transform="matrix(4.16667,0,0,4.16667,0,0)">
		<g transform="matrix(1,0,0,1,271.996,294.4)">
			<path class="st4" d="M-241.6-291.5c-0.2-0.2-0.5-0.4-0.9-0.4c-0.3,0-0.7,0.1-0.9,0.4c-0.2,0.2-0.3,0.5-0.3,0.9v2.4h-0.7v-4.3h0.7
				v0.4c0.2-0.2,0.4-0.3,0.6-0.4c0.2-0.1,0.4-0.1,0.7-0.1c0.6,0,1,0.2,1.4,0.7L-241.6-291.5z"/>
		</g>
	</g>
	<g transform="matrix(4.16667,0,0,4.16667,0,0)">
		<g transform="matrix(1,0,0,1,156.178,312.832)">
			<path class="st5" d="M-140.5-303.7v-1.4h-0.4c-0.2,0-0.3,0.1-0.4,0.2c-0.1,0.1-0.2,0.2-0.2,0.4c0,0.2,0.1,0.3,0.2,0.4
				c0.1,0.1,0.3,0.2,0.4,0.2c0.1,0,0.2,0,0.3-0.1v0.3c-0.1,0-0.2,0.1-0.3,0.1c-0.2,0-0.4-0.1-0.6-0.2c-0.2-0.2-0.2-0.3-0.2-0.6
				c0-0.1,0-0.3,0.1-0.4c0.1-0.1,0.2-0.2,0.3-0.3s0.3-0.1,0.4-0.1h0.6v1.6H-140.5L-140.5-303.7z"/>
		</g>
	</g>
	<g transform="matrix(4.16667,0,0,4.16667,0,0)">
		<g transform="matrix(1,0,0,1,171.643,321.861)">
			<path class="st5" d="M-154-313.9c-0.2-0.2-0.3-0.2-0.5-0.2c-0.2,0-0.3,0.1-0.4,0.2c-0.1,0.1-0.2,0.3-0.2,0.4
				c0,0.2,0.1,0.3,0.2,0.4c0.1,0.1,0.2,0.2,0.4,0.2c0.1,0,0.2,0,0.3-0.1c0.1-0.1,0.2-0.2,0.2-0.3l0.2,0.2c-0.2,0.3-0.4,0.4-0.7,0.4
				c-0.2,0-0.4-0.1-0.6-0.2c-0.2-0.2-0.3-0.4-0.3-0.6c0-0.2,0.1-0.4,0.2-0.6c0.2-0.2,0.4-0.2,0.6-0.2c0.3,0,0.5,0.1,0.7,0.3
				L-154-313.9z"/>
		</g>
	</g>
	<g transform="matrix(4.16667,0,0,4.16667,0,0)">
		<g transform="matrix(1,0,0,1,185.014,312.832)">
			<path class="st5" d="M-165.7-303.7v-1.4h-0.4c-0.2,0-0.3,0.1-0.4,0.2c-0.1,0.1-0.2,0.2-0.2,0.4c0,0.2,0.1,0.3,0.2,0.4
				c0.1,0.1,0.2,0.2,0.4,0.2c0.1,0,0.2,0,0.3-0.1v0.3c-0.1,0-0.2,0.1-0.3,0.1c-0.2,0-0.4-0.1-0.6-0.2c-0.2-0.2-0.2-0.3-0.2-0.6
				c0-0.1,0-0.3,0.1-0.4c0.1-0.1,0.2-0.2,0.3-0.3c0.1-0.1,0.3-0.1,0.4-0.1h0.6v1.6H-165.7L-165.7-303.7z"/>
		</g>
	</g>
	<g transform="matrix(4.16667,0,0,4.16667,0,0)">
		<g transform="matrix(1,0,0,1,200.027,320.246)">
			<path class="st5" d="M-178.8-312.5h-0.4c-0.2,0-0.3,0.1-0.4,0.2c-0.1,0.1-0.2,0.2-0.2,0.4c0,0.2,0.1,0.3,0.2,0.4
				c0.1,0.1,0.3,0.2,0.4,0.2h0.4L-178.8-312.5L-178.8-312.5z M-179.9-312.3c0.1-0.1,0.2-0.2,0.3-0.3c0.1-0.1,0.3-0.1,0.4-0.1h0.4
				v-0.4h0.2v2h-0.6c-0.2,0-0.4-0.1-0.6-0.2c-0.2-0.2-0.2-0.3-0.2-0.6C-180-312-180-312.2-179.9-312.3"/>
		</g>
	</g>
	<g transform="matrix(4.16667,0,0,4.16667,0,0)">
		<g transform="matrix(1,0,0,1,216.684,320.033)">
			<path class="st5" d="M-193.3-311.8c-0.1-0.3-0.2-0.5-0.6-0.5c-0.2,0-0.3,0.1-0.4,0.2c-0.1,0.1-0.2,0.3-0.2,0.4
				c0,0.2,0.1,0.3,0.2,0.4c0.1,0.1,0.3,0.2,0.4,0.2c0.1,0,0.3,0,0.4-0.1c0.2-0.1,0.2-0.2,0.3-0.2l0.2,0.2c-0.1,0.1-0.2,0.2-0.3,0.3
				c-0.1,0.1-0.3,0.1-0.5,0.1c-0.2,0-0.4-0.1-0.6-0.2c-0.2-0.2-0.3-0.4-0.3-0.6c0-0.2,0.1-0.4,0.3-0.6c0.2-0.2,0.4-0.2,0.6-0.2
				c0.3,0,0.5,0.1,0.6,0.2c0.2,0.1,0.3,0.3,0.3,0.6c0,0,0,0.1,0,0.1h-1.2v-0.2L-193.3-311.8L-193.3-311.8z"/>
		</g>
	</g>
	<g transform="matrix(4.16667,0,0,4.16667,0,0)">
		<g transform="matrix(1,0,0,1,233.339,312.566)">
			<path class="st5" d="M-207.9-303.4h-0.3v-0.9c0-0.1-0.1-0.2-0.1-0.3c-0.1-0.1-0.2-0.1-0.3-0.1c-0.1,0-0.2,0.1-0.3,0.1
				c-0.1,0.1-0.1,0.2-0.1,0.3v0.9h-0.3v-1.6h0.3v0.2c0.1-0.1,0.2-0.1,0.2-0.1c0.1,0,0.2-0.1,0.3-0.1c0.1,0,0.2,0,0.3,0.1
				s0.2,0.1,0.2,0.2c0.1-0.1,0.2-0.2,0.3-0.2c0.1-0.1,0.2-0.1,0.3-0.1c0.2,0,0.4,0.1,0.5,0.2s0.2,0.3,0.2,0.5v0.9h-0.3v-0.9
				c0-0.1-0.1-0.2-0.1-0.3c-0.1-0.1-0.2-0.1-0.3-0.1c-0.1,0-0.2,0.1-0.3,0.1c-0.1,0.1-0.1,0.2-0.1,0.3L-207.9-303.4L-207.9-303.4z"
				/>
		</g>
	</g>
	<g transform="matrix(4.16667,0,0,4.16667,0,0)">
		<g transform="matrix(1,0,0,1,246.049,324.43)">
			<path class="st5" d="M-219-317.2C-219-317.2-219-317.2-219-317.2c0.1-0.1,0.1-0.1,0.1-0.1c0,0,0.1,0,0.1,0c0,0,0,0.1,0,0.1
				c0,0,0,0.1,0,0.1c0,0-0.1,0-0.1,0C-218.9-317.1-218.9-317.1-219-317.2C-218.9-317.1-219-317.1-219-317.2 M-218.7-315.3h-0.3v-1.6
				h0.3V-315.3z"/>
		</g>
	</g>
	<g transform="matrix(4.16667,0,0,4.16667,0,0)">
		<g transform="matrix(1,0,0,1,261.062,312.832)">
			<path class="st5" d="M-232.1-303.7v-1.4h-0.4c-0.2,0-0.3,0.1-0.4,0.2c-0.1,0.1-0.2,0.2-0.2,0.4c0,0.2,0.1,0.3,0.2,0.4
				c0.1,0.1,0.3,0.2,0.4,0.2c0.1,0,0.2,0,0.3-0.1v0.3c-0.1,0-0.2,0.1-0.3,0.1c-0.2,0-0.4-0.1-0.6-0.2c-0.2-0.2-0.2-0.3-0.2-0.6
				c0-0.1,0-0.3,0.1-0.4c0.1-0.1,0.2-0.2,0.3-0.3c0.1-0.1,0.3-0.1,0.4-0.1h0.6v1.6H-232.1L-232.1-303.7z"/>
		</g>
	</g>
</g>
</svg>
