<?xml version="1.0" encoding="utf-8"?>
<!-- Generator: Adobe Illustrator 28.3.0, SVG Export Plug-In . SVG Version: 6.00 Build 0)  -->
<svg version="1.1" id="Camada_1" xmlns="http://www.w3.org/2000/svg" xmlns:xlink="http://www.w3.org/1999/xlink" x="0px" y="0px"
	 style="enable-background:new 0 0 189 40;"  xml:space="preserve"/>
<style type="text/css">
	.st0{fill-rule:evenodd;clip-rule:evenodd;fill:#00B37E;}
	.st1{fill:#FFFFFF;}
</style>
<path class="st0" d="M7.5,10c0-1.4,1.1-2.5,2.5-2.5h3.8c1.4,0,2.5,1.1,2.5,2.5v20c0,1.4-1.1,2.5-2.5,2.5H10c-1.4,0-2.5-1.1-2.5-2.5
	V10z M13.8,10H10v20h3.8V10z"/>
<path class="st0" d="M23.8,10c0-1.4,1.1-2.5,2.5-2.5H30c1.4,0,2.5,1.1,2.5,2.5v20c0,1.4-1.1,2.5-2.5,2.5h-3.8
	c-1.4,0-2.5-1.1-2.5-2.5V10z M30,10h-3.8v20H30V10z"/>
<path class="st0" d="M30,12.5c0-0.7,0.6-1.2,1.2-1.2H35c0.7,0,1.3,0.3,1.8,0.7c0.5,0.5,0.7,1.1,0.7,1.8v12.5c0,0.7-0.3,1.3-0.7,1.8
	c-0.5,0.5-1.1,0.7-1.8,0.7h-3.8c-0.7,0-1.2-0.6-1.2-1.2s0.6-1.2,1.2-1.2H35V13.8h-3.8C30.6,13.8,30,13.2,30,12.5z"/>
<path class="st0" d="M3.2,12c0.5-0.5,1.1-0.7,1.8-0.7h3.8c0.7,0,1.2,0.6,1.2,1.2s-0.6,1.2-1.2,1.2H5v12.5h3.8c0.7,0,1.2,0.6,1.2,1.2
	s-0.6,1.2-1.2,1.2H5c-0.7,0-1.3-0.3-1.8-0.7c-0.5-0.5-0.7-1.1-0.7-1.8V13.8C2.5,13.1,2.8,12.5,3.2,12z"/>
<path class="st0" d="M13.8,20c0-0.7,0.6-1.2,1.2-1.2h10c0.7,0,1.2,0.6,1.2,1.2s-0.6,1.2-1.2,1.2H15C14.3,21.2,13.8,20.7,13.8,20z"/>
<path class="st0" d="M35,20c0-0.7,0.6-1.2,1.2-1.2h2.5c0.7,0,1.2,0.6,1.2,1.2s-0.6,1.2-1.2,1.2h-2.5C35.6,21.2,35,20.7,35,20z"/>
<path class="st0" d="M0,20c0-0.7,0.6-1.2,1.2-1.2h2.5C4.4,18.8,5,19.3,5,20s-0.6,1.2-1.2,1.2H1.2C0.6,21.2,0,20.7,0,20z"/>
<path class="st1" d="M58.5,9.6v19.9h-4.1V9.6H58.5z M71.4,14.7H75V29c0,1.3-0.3,2.5-0.9,3.4c-0.6,0.9-1.4,1.7-2.5,2.1
	c-1.1,0.5-2.3,0.7-3.7,0.7c-0.6,0-1.3-0.1-2-0.2c-0.7-0.2-1.3-0.4-2-0.8c-0.6-0.3-1.1-0.8-1.6-1.3l1.7-2.3c0.5,0.5,1,0.9,1.6,1.2
	c0.6,0.3,1.3,0.5,2,0.5c0.7,0,1.3-0.1,1.8-0.4c0.5-0.3,0.9-0.6,1.1-1.1c0.3-0.5,0.4-1.1,0.4-1.8V18.1L71.4,14.7z M61.5,22.3V22
	c0-1.1,0.1-2.2,0.4-3.1c0.3-0.9,0.7-1.7,1.2-2.4c0.5-0.7,1.1-1.2,1.9-1.5c0.7-0.4,1.6-0.5,2.5-0.5c1,0,1.8,0.2,2.5,0.5
	s1.2,0.9,1.6,1.6c0.4,0.7,0.8,1.5,1,2.4c0.2,0.9,0.4,1.9,0.6,3v0.6c-0.1,1-0.3,2-0.6,2.9c-0.3,0.9-0.6,1.7-1.1,2.3
	c-0.4,0.7-1,1.2-1.7,1.5c-0.7,0.4-1.4,0.5-2.4,0.5c-0.9,0-1.7-0.2-2.5-0.6c-0.7-0.4-1.4-0.9-1.9-1.6s-0.9-1.5-1.2-2.4
	C61.6,24.4,61.5,23.4,61.5,22.3z M65.4,22v0.3c0,0.6,0.1,1.2,0.2,1.7c0.1,0.5,0.3,1,0.5,1.4c0.3,0.4,0.6,0.7,0.9,0.9
	c0.4,0.2,0.8,0.3,1.4,0.3c0.7,0,1.3-0.2,1.8-0.5c0.5-0.3,0.8-0.7,1-1.3c0.2-0.5,0.4-1.2,0.4-1.9v-1.8c0-0.6-0.1-1.1-0.2-1.5
	c-0.1-0.5-0.3-0.9-0.6-1.2s-0.6-0.6-1-0.8c-0.4-0.2-0.9-0.3-1.4-0.3c-0.5,0-1,0.1-1.4,0.4c-0.4,0.2-0.7,0.5-0.9,0.9
	c-0.2,0.4-0.4,0.9-0.6,1.4C65.5,20.8,65.4,21.4,65.4,22z M81.9,17.9v11.6H78V14.7h3.7L81.9,17.9z M81.3,21.6h-1.1
	c0-1.1,0.1-2.1,0.4-3c0.3-0.9,0.7-1.6,1.2-2.3c0.5-0.6,1.1-1.1,1.8-1.4c0.7-0.3,1.5-0.5,2.4-0.5c0.7,0,1.3,0.1,1.9,0.3
	c0.6,0.2,1.1,0.5,1.5,1c0.4,0.4,0.7,1,1,1.7c0.2,0.7,0.3,1.6,0.3,2.6v9.4h-4v-9.4c0-0.7-0.1-1.2-0.3-1.5c-0.2-0.4-0.5-0.6-0.8-0.8
	c-0.3-0.2-0.8-0.2-1.3-0.2c-0.5,0-1,0.1-1.4,0.3c-0.4,0.2-0.7,0.5-1,0.9c-0.2,0.4-0.4,0.8-0.6,1.3C81.4,20.5,81.3,21,81.3,21.6z
	 M97.9,14.7v14.8h-4V14.7H97.9z M93.7,10.9c0-0.6,0.2-1,0.6-1.4c0.4-0.4,0.9-0.6,1.6-0.6c0.7,0,1.2,0.2,1.6,0.6
	c0.4,0.4,0.6,0.8,0.6,1.4c0,0.6-0.2,1-0.6,1.4c-0.4,0.4-0.9,0.6-1.6,0.6c-0.7,0-1.2-0.2-1.6-0.6C93.9,11.9,93.7,11.4,93.7,10.9z
	 M108.4,14.7v2.8h-8.6v-2.8H108.4z M101.9,11.1h3.9v14c0,0.4,0.1,0.8,0.2,1c0.1,0.2,0.3,0.4,0.5,0.5c0.2,0.1,0.5,0.1,0.9,0.1
	c0.2,0,0.5,0,0.7,0c0.2,0,0.4-0.1,0.5-0.1l0,2.9c-0.3,0.1-0.7,0.2-1.1,0.3s-0.8,0.1-1.3,0.1c-0.9,0-1.6-0.1-2.3-0.4
	c-0.6-0.3-1.1-0.8-1.5-1.4c-0.3-0.6-0.5-1.5-0.5-2.5V11.1z M117.5,29.8c-1.1,0-2.2-0.2-3.1-0.5c-0.9-0.4-1.7-0.9-2.3-1.5
	c-0.6-0.7-1.1-1.4-1.4-2.3c-0.3-0.9-0.5-1.8-0.5-2.8v-0.5c0-1.1,0.2-2.1,0.5-3.1c0.3-0.9,0.8-1.7,1.4-2.4c0.6-0.7,1.3-1.2,2.2-1.6
	c0.9-0.4,1.8-0.6,2.9-0.6c1,0,2,0.2,2.8,0.5c0.8,0.3,1.5,0.8,2,1.5c0.6,0.6,1,1.4,1.3,2.3c0.3,0.9,0.4,1.9,0.4,3v1.6h-11.8v-2.6h7.9
	v-0.3c0-0.5-0.1-1-0.3-1.5c-0.2-0.4-0.5-0.8-0.9-1c-0.4-0.3-0.9-0.4-1.5-0.4c-0.5,0-1,0.1-1.3,0.3c-0.4,0.2-0.7,0.5-0.9,1
	c-0.2,0.4-0.4,0.9-0.5,1.4c-0.1,0.5-0.2,1.1-0.2,1.8v0.5c0,0.6,0.1,1.1,0.2,1.6c0.2,0.5,0.4,0.9,0.7,1.3c0.3,0.4,0.7,0.6,1.1,0.8
	c0.5,0.2,1,0.3,1.5,0.3c0.7,0,1.4-0.1,2-0.4c0.6-0.3,1.2-0.7,1.6-1.3l1.9,2.1c-0.3,0.4-0.7,0.9-1.3,1.3c-0.5,0.4-1.2,0.7-1.9,1
	C119.3,29.6,118.4,29.8,117.5,29.8z M148.8,19.1V27c-0.3,0.4-0.8,0.8-1.4,1.2c-0.6,0.4-1.5,0.8-2.5,1.1s-2.3,0.5-3.7,0.5
	c-1.3,0-2.5-0.2-3.5-0.6c-1.1-0.4-2-1.1-2.7-1.9c-0.8-0.8-1.3-1.8-1.8-3c-0.4-1.2-0.6-2.6-0.6-4.1v-1.2c0-1.5,0.2-2.9,0.6-4.1
	c0.4-1.2,1-2.2,1.7-3c0.7-0.8,1.6-1.4,2.6-1.9c1-0.4,2.2-0.6,3.4-0.6c1.7,0,3.2,0.3,4.3,0.8c1.1,0.6,2,1.3,2.5,2.3
	c0.6,1,1,2.1,1.1,3.4h-4c-0.1-0.7-0.3-1.3-0.6-1.8s-0.7-0.9-1.2-1.2c-0.5-0.3-1.2-0.4-2-0.4c-0.7,0-1.3,0.1-1.8,0.4
	c-0.5,0.3-1,0.7-1.3,1.2c-0.4,0.5-0.6,1.2-0.8,2c-0.2,0.8-0.3,1.7-0.3,2.8v1.3c0,1,0.1,2,0.3,2.8c0.2,0.8,0.5,1.5,0.9,2
	c0.4,0.5,0.9,0.9,1.5,1.2c0.6,0.3,1.3,0.4,2,0.4c0.6,0,1.2-0.1,1.6-0.2c0.4-0.1,0.8-0.2,1.1-0.4c0.3-0.2,0.5-0.3,0.6-0.5V22h-3.7
	v-2.9H148.8z M156.2,27.8l3.9-13.1h4.2l-5.9,17c-0.1,0.4-0.3,0.8-0.5,1.2c-0.2,0.4-0.5,0.8-0.9,1.2c-0.4,0.4-0.8,0.7-1.4,1
	c-0.5,0.2-1.2,0.4-2,0.4c-0.4,0-0.7,0-0.9-0.1c-0.2,0-0.5-0.1-0.8-0.2v-2.9c0.1,0,0.2,0,0.3,0c0.1,0,0.2,0,0.3,0
	c0.5,0,0.9-0.1,1.3-0.2c0.3-0.1,0.6-0.3,0.8-0.5c0.2-0.2,0.4-0.5,0.5-0.9L156.2,27.8z M154.6,14.7l3.2,10.7l0.6,4.2l-2.7,0.3
	l-5.3-15.2H154.6z M169.9,17.8v11.7h-4V14.7h3.7L169.9,17.8z M169.3,21.6h-1.1c0-1,0.1-2,0.4-2.8c0.3-0.9,0.6-1.6,1.1-2.3
	c0.5-0.6,1.1-1.1,1.8-1.5c0.7-0.4,1.6-0.5,2.5-0.5c0.7,0,1.3,0.1,1.8,0.3c0.5,0.2,1,0.5,1.4,0.9c0.4,0.4,0.7,0.9,0.9,1.6
	c0.2,0.7,0.3,1.4,0.3,2.4v9.9h-3.9v-9.4c0-0.7-0.1-1.2-0.3-1.6c-0.2-0.4-0.4-0.6-0.8-0.8c-0.3-0.1-0.7-0.2-1.2-0.2
	c-0.5,0-1,0.1-1.3,0.3c-0.4,0.2-0.7,0.5-0.9,0.9c-0.2,0.4-0.4,0.8-0.5,1.3C169.4,20.5,169.3,21,169.3,21.6z M178.1,21.1l-1.4,0.2
	c0-1,0.1-1.9,0.4-2.7c0.2-0.8,0.6-1.6,1.1-2.2c0.5-0.6,1.1-1.1,1.8-1.5c0.7-0.4,1.5-0.5,2.5-0.5c0.7,0,1.4,0.1,1.9,0.3
	c0.6,0.2,1.1,0.5,1.5,1c0.4,0.4,0.7,1,1,1.7c0.2,0.7,0.3,1.6,0.3,2.6v9.4h-4v-9.4c0-0.7-0.1-1.2-0.3-1.6c-0.2-0.4-0.4-0.6-0.8-0.8
	c-0.3-0.1-0.7-0.2-1.2-0.2c-0.5,0-0.9,0.1-1.2,0.3c-0.4,0.2-0.7,0.4-0.9,0.8c-0.2,0.3-0.4,0.7-0.5,1.1
	C178.2,20.2,178.1,20.6,178.1,21.1z"/>
</svg>
