<?xml version="1.0" encoding="UTF-8"?>
<svg id="b" data-name="Camada 2" xmlns="http://www.w3.org/2000/svg" viewBox="0 0 305.33 68.78">
  <defs>
    <style>
      .d {
        fill: #e30613;
      }

      .d, .e, .f, .g, .h {
        fill-rule: evenodd;
      }

      .d, .e, .f, .g, .h, .i {
        stroke-width: 0px;
      }

      .e {
        fill: #f39200;
      }

      .f, .i {
        fill: #fff;
      }

      .g {
        fill: #3baa35;
      }

      .h {
        fill: #009fe3;
      }
    </style>
  </defs>
  <g id="c" data-name="Camada 1">
    <g>
      <path class="h" d="M242.88,17.3c-3.64-.43-6.42-3.64-6.42-7.49,0-4.06,3.42-7.49,7.49-7.49s7.27,3.21,7.49,7.06c-3.42,1.71-6.42,4.49-8.56,7.91"/>
      <path class="d" d="M237.93,41.29c-1.92,4.06-6.2,6.84-11.12,6.84-6.84,0-12.41-5.56-12.41-12.41v-.43c4.06,3.64,13.26,5.56,23.53,5.99M239.21,35.95c0,1.28-.21,2.57-.64,3.85-11.34-.43-21.6-2.57-23.74-6.42,0-.43.21-.64.21-.86,1.5-5.13,6.2-8.77,11.76-8.77,2.57,0,4.92.86,6.84,2.14,3.42,1.92,5.56,5.77,5.56,10.05"/>
      <path class="g" d="M287.36,25.94c-4.06-2.14-6.63-6.2-6.63-10.91,0-6.84,5.56-12.41,12.41-12.41,3.42,0,6.42,1.28,8.77,3.64,0,4.28-2.78,8.98-7.06,13.47-2.35,1.92-4.71,4.06-7.49,6.2M305.33,14.82c0,6.84-5.56,12.41-12.41,12.41-1.28,0-2.57-.21-3.85-.64,2.57-1.92,4.71-3.85,6.84-5.77,4.06-4.06,6.63-8.56,7.27-12.83,1.28,1.92,2.14,4.28,2.14,6.84"/>
      <path class="e" d="M243.6,39.56c-1.5-2.99-2.57-6.42-2.57-10.05,0-2.35.43-4.71,1.07-6.84,2.78-8.34,10.91-14.54,20.11-14.54,4.28,0,8.13,1.28,11.34,3.42,5.56,3.64,9.41,9.62,9.84,16.68-3.42,2.14-7.06,4.06-10.91,5.56-2.57,1.07-5.13,1.92-7.91,2.78-2.57.64-5.13,1.28-7.91,1.71s-5.77.64-8.98.86c-1.07.43-2.78.43-4.06.43M283.6,30.36c-.43,11.34-9.84,20.53-21.39,20.53-7.49,0-13.9-3.85-17.75-9.62,1.28,0,2.35,0,3.64-.21,2.99-.21,6.2-.43,9.2-.86,2.99-.43,5.77-1.07,8.13-1.71h0c2.78-.86,5.35-1.71,7.91-2.78,3.64-1.71,7.06-3.42,10.27-5.35"/>
      <path class="f" d="M26.31,14.86h-7.91c-3.64,0-6.63,1.07-8.98,3.42s-3.64,5.13-3.64,8.56c0,3.64,1.28,6.42,3.85,8.77,2.57,2.35,5.56,3.42,9.2,3.42h7.7V14.86h-.21ZM1.92,34.75c-1.28-2.57-1.92-5.13-1.92-7.91,0-4.92,1.71-9.2,5.35-12.62,3.64-3.42,7.91-5.13,12.83-5.13h13.69v46.63h-5.56v-11.55h-8.56c-3.42,0-6.63-.86-9.41-2.57-2.57-1.5-4.92-3.85-6.42-6.84"/>
      <path class="f" d="M35.96,29.43V9.33h5.56v19.68c0,2.99.86,5.35,2.78,7.49,1.92,1.92,4.28,2.99,7.06,2.99,2.99,0,5.35-1.07,7.27-2.99s2.78-4.49,2.78-7.27V9.33h5.77v34.86h-5.77v-3.64c-1.92,1.5-3.42,2.35-4.92,2.99-1.71.64-3.64,1.07-5.56,1.07-4.28,0-7.7-1.5-10.69-4.49-2.78-2.78-4.28-6.42-4.28-10.69"/>
      <path class="f" d="M97.73,44.37V14.42h-7.7c-3.64,0-6.63,1.28-9.2,3.64-2.57,2.35-3.64,5.35-3.64,8.98s1.28,6.42,3.64,8.77c2.57,2.35,5.56,3.64,8.98,3.64,2.14,0,4.06-.43,5.77-1.5v5.56c-2.35.86-4.49,1.28-6.2,1.28-5.13,0-9.41-1.71-12.83-5.13-3.64-3.42-5.35-7.7-5.35-12.62,0-2.78.64-5.56,1.92-8.13,1.5-2.99,3.85-5.35,6.63-6.84,2.78-1.71,5.99-2.57,9.41-2.57h13.9v35.08h-5.35v-.21Z"/>
      <path class="f" d="M106.37,0h5.56v9.2h12.19v5.35h-12.19v17.32c0,.43.21,1.28.43,2.35.43,1.07.64,1.71.86,2.14,1.5,1.92,4.06,2.99,7.7,2.99h4.06v5.13h-7.49c-1.5-.21-2.57-.43-3.64-.64-2.35-.64-4.06-1.92-5.56-3.85-1.5-1.92-2.14-4.06-2.14-6.42V0h.21Z"/>
      <path class="f" d="M126.1,0h5.56v9.2h12.19v5.35h-12.19v17.32c0,.43.21,1.28.43,2.35.21,1.07.64,1.71.86,2.14,1.5,1.92,4.06,2.99,7.7,2.99h4.06v5.13h-7.49c-1.5-.21-2.57-.43-3.64-.64-2.35-.64-4.06-1.92-5.56-3.85-1.5-1.92-2.14-4.06-2.14-6.42V0h.21Z"/>
      <path class="f" d="M165.86,13.99c-3.64,0-6.84,1.28-9.62,3.64-2.57,2.57-4.06,5.56-4.06,9.2s1.28,6.63,4.06,8.98c2.57,2.35,5.77,3.64,9.41,3.64s6.84-1.28,9.62-3.64c2.57-2.35,4.06-5.35,4.06-8.98s-1.28-6.63-4.06-9.2c-2.57-2.35-5.77-3.64-9.41-3.64M165.86,44.79c-5.13,0-9.62-1.71-13.26-5.13-3.64-3.42-5.56-7.7-5.56-12.83s1.92-9.2,5.56-12.83c3.64-3.42,8.13-5.35,13.26-5.35s9.62,1.71,13.47,5.35c3.85,3.42,5.56,7.7,5.56,12.83s-1.92,9.2-5.56,12.83c-3.85,3.42-8.34,5.13-13.47,5.13"/>
      <path class="f" d="M209.69,17.16c-1.92-1.92-4.28-2.99-7.27-2.99-2.78,0-5.35,1.07-7.06,2.99-1.92,1.92-2.78,4.49-2.78,7.49v19.89h-5.77V9.46h5.77v3.64c1.92-1.5,3.42-2.57,4.92-2.99,1.71-.64,3.64-1.07,5.56-1.07,4.71,0,8.56,1.92,11.55,5.56l-4.92,2.57Z"/>
      <path class="i" d="M89.87,68.13v-11.34h-2.99c-1.28,0-2.57.43-3.42,1.28-.86.86-1.5,1.92-1.5,3.42,0,1.28.43,2.35,1.28,3.42.86.86,2.14,1.28,3.42,1.28.86,0,1.5-.21,2.14-.64v2.14c-.86.21-1.71.43-2.35.43-1.92,0-3.42-.64-4.92-1.92-1.28-1.28-1.92-2.78-1.92-4.71,0-1.07.21-2.14.64-2.99.64-1.07,1.5-1.92,2.57-2.57s2.35-.86,3.64-.86h5.13v13.05h-1.71Z"/>
      <path class="i" d="M105.84,58.78c-1.28-1.28-2.57-1.92-3.85-1.92s-2.35.43-3.42,1.5c-.86.86-1.5,2.14-1.5,3.42s.43,2.35,1.5,3.42c.86.86,1.92,1.5,3.42,1.5,1.07,0,1.92-.21,2.78-.86.86-.64,1.28-1.28,1.71-2.14l1.5,1.28c-1.28,2.35-3.21,3.64-5.56,3.64-1.92,0-3.64-.64-4.92-1.92-1.5-1.28-2.14-2.99-2.14-4.92s.64-3.64,1.92-4.92,2.99-1.92,4.92-1.92c2.35,0,4.28.86,5.56,2.78l-1.92,1.07Z"/>
      <path class="i" d="M119.68,68.13v-11.34h-2.99c-1.28,0-2.57.43-3.42,1.28s-1.5,1.92-1.5,3.42c0,1.28.43,2.35,1.5,3.42.86.86,1.92,1.28,3.42,1.28.86,0,1.5-.21,2.14-.64v2.14c-.86.21-1.71.43-2.35.43-1.92,0-3.42-.64-4.92-1.92-1.28-1.28-1.92-2.78-1.92-4.71,0-1.07.21-2.14.64-2.99.64-1.07,1.5-1.92,2.57-2.57s2.14-.86,3.42-.86h5.13v13.05h-1.71Z"/>
      <path class="i" d="M135.32,57.04h-2.99c-1.28,0-2.57.43-3.42,1.28s-1.5,1.92-1.5,3.42c0,1.28.43,2.35,1.28,3.21.86.86,2.14,1.28,3.42,1.28h2.99v-9.2h.21ZM126.13,58.54c.64-1.07,1.5-1.92,2.57-2.57s2.14-.86,3.42-.86h3.21v-3.42h1.92v16.47h-5.13c-1.92,0-3.42-.64-4.92-1.92-1.28-1.28-1.92-2.78-1.92-4.71,0-1.07.21-1.92.86-2.99"/>
      <path class="i" d="M152.56,60.65c-.43-2.57-1.92-3.85-4.71-3.85-1.5,0-2.57.43-3.64,1.5-1.07.86-1.5,2.14-1.5,3.42s.43,2.35,1.5,3.42c.86.86,2.14,1.5,3.42,1.5,1.07,0,2.14-.21,3.21-.64,1.28-.43,1.92-1.28,2.35-1.92l1.5,1.28c-.64,1.07-1.5,1.92-2.78,2.57-1.07.43-2.35.86-3.85.86-1.92,0-3.64-.64-4.92-1.92-1.28-1.28-2.14-2.99-2.14-4.71,0-1.92.64-3.42,2.14-4.71,1.5-1.28,2.99-1.92,4.92-1.92,2.14,0,3.85.43,4.92,1.5,1.5,1.07,2.14,2.78,2.14,5.13v.86h-10.05v-1.71h7.49v-.64Z"/>
      <path class="i" d="M169.79,68.2h-2.14v-7.49c0-1.07-.43-1.92-1.07-2.78-.64-.64-1.5-1.07-2.57-1.07s-1.92.43-2.78,1.07c-.64.64-1.07,1.71-1.07,2.78v7.49h-2.14v-13.05h2.14v1.28c.64-.43,1.28-.86,1.92-1.07.64-.21,1.28-.43,2.14-.43,1.07,0,1.92.21,2.78.64.86.43,1.5,1.07,1.92,1.92.64-.86,1.28-1.5,2.14-1.92s1.71-.64,2.78-.64c1.5,0,2.99.64,4.06,1.71s1.71,2.57,1.71,4.06v7.49h-2.14v-7.49c0-1.07-.43-1.92-1.07-2.78-.64-.64-1.5-1.07-2.57-1.07s-1.92.43-2.78,1.07c-.64.86-1.07,1.71-1.07,2.78v7.49h-.21Z"/>
      <path class="i" d="M182.85,52.73c0-.21,0-.43.21-.64s.43-.21.64-.21.64,0,.64.21c.21.21.21.43.21.64s0,.64-.21.64c-.21.21-.43.21-.64.21s-.43,0-.64-.21c0-.21-.21-.43-.21-.64M184.99,68.13h-2.14v-13.26h2.14v13.26Z"/>
      <path class="i" d="M198.49,68.13v-11.34h-2.99c-1.28,0-2.57.43-3.42,1.28s-1.5,1.92-1.5,3.42c0,1.28.43,2.35,1.28,3.42.86.86,2.14,1.28,3.42,1.28.86,0,1.5-.21,2.14-.64v2.14c-.86.21-1.71.43-2.35.43-1.92,0-3.42-.64-4.92-1.92-1.28-1.28-1.92-2.78-1.92-4.71,0-1.07.21-2.14.64-2.99.64-1.07,1.5-1.92,2.57-2.57s2.35-.86,3.64-.86h5.13v13.05h-1.71Z"/>
    </g>
  </g>
</svg>